<?xml version="1.0" encoding="UTF-8" standalone="no"?>
<!DOCTYPE svg PUBLIC "-//W3C//DTD SVG 1.1//EN" "http://www.w3.org/Graphics/SVG/1.1/DTD/svg11.dtd">
<svg width="100%" height="100%" viewBox="0 0 197 47" version="1.1" xmlns="http://www.w3.org/2000/svg" xmlns:xlink="http://www.w3.org/1999/xlink" xml:space="preserve" xmlns:serif="http://www.serif.com/" style="fill-rule:evenodd;clip-rule:evenodd;stroke-linejoin:round;stroke-miterlimit:2;">
    <g transform="matrix(1,0,0,1,-8137.55,-3305.43)">
        <g transform="matrix(0.739583,0,0,3.93945,4533.22,0)">
            <g transform="matrix(0.216362,0,0,0.0194828,4814.89,835.707)">
                <g transform="matrix(0.678715,0,0,1.24739,-50.9064,11.7771)">
                    <path d="M591.436,431.511L591.436,614.288L496.909,614.288C549.964,347.328 389.462,256.185 540.653,128.419C515.966,275.799 588.879,321.547 662.81,335.87C736.741,321.547 809.654,275.799 784.967,128.419C936.158,256.185 775.656,347.327 828.711,614.288L734.184,614.288L734.184,431.511L591.436,431.511Z" style="fill:rgb(142,44,11);fill-rule:nonzero;"/>
                </g>
                <g transform="matrix(298.382,0,0,622.09,540.196,770.608)">
                    <path d="M0.304,-0.125C0.249,-0.125 0.208,-0.16 0.192,-0.212L0.561,-0.212C0.561,-0.409 0.465,-0.529 0.301,-0.529C0.145,-0.529 0.031,-0.417 0.031,-0.26C0.031,-0.101 0.149,0.012 0.309,0.012C0.386,0.012 0.475,-0.021 0.521,-0.068L0.421,-0.169C0.39,-0.142 0.344,-0.125 0.304,-0.125ZM0.304,-0.393C0.355,-0.393 0.39,-0.362 0.404,-0.315L0.194,-0.315C0.212,-0.363 0.253,-0.393 0.304,-0.393Z" style="fill:rgb(142,44,11);fill-rule:nonzero;"/>
                </g>
                <g transform="matrix(298.382,0,0,622.09,716.838,770.608)">
                    <rect x="0.059" y="-0.699" width="0.17" height="0.699" style="fill:rgb(142,44,11);fill-rule:nonzero;"/>
                </g>
                <g transform="matrix(298.382,0,0,622.09,802.772,770.608)">
                    <rect x="0.059" y="-0.699" width="0.17" height="0.699" style="fill:rgb(142,44,11);fill-rule:nonzero;"/>
                </g>
                <g transform="matrix(298.382,0,0,622.09,888.706,770.608)">
                    <path d="M0.19,0L0.341,0L0.423,-0.295L0.506,0L0.657,0L0.833,-0.517L0.669,-0.517L0.582,-0.227L0.492,-0.517L0.353,-0.517L0.264,-0.227L0.177,-0.517L0.013,-0.517L0.19,0Z" style="fill:rgb(142,44,11);fill-rule:nonzero;"/>
                </g>
                <g transform="matrix(298.382,0,0,622.09,1133.38,770.608)">
                    <path d="M0.304,-0.125C0.249,-0.125 0.208,-0.16 0.192,-0.212L0.561,-0.212C0.561,-0.409 0.465,-0.529 0.301,-0.529C0.145,-0.529 0.031,-0.417 0.031,-0.26C0.031,-0.101 0.149,0.012 0.309,0.012C0.386,0.012 0.475,-0.021 0.521,-0.068L0.421,-0.169C0.39,-0.142 0.344,-0.125 0.304,-0.125ZM0.304,-0.393C0.355,-0.393 0.39,-0.362 0.404,-0.315L0.194,-0.315C0.212,-0.363 0.253,-0.393 0.304,-0.393Z" style="fill:rgb(142,44,11);fill-rule:nonzero;"/>
                </g>
                <g transform="matrix(298.382,0,0,622.09,1310.02,770.608)">
                    <path d="M0.396,-0.529C0.327,-0.529 0.268,-0.5 0.227,-0.451L0.227,-0.699L0.057,-0.699L0.057,0L0.227,0L0.227,-0.066C0.268,-0.017 0.327,0.012 0.396,0.012C0.535,0.012 0.633,-0.1 0.633,-0.259C0.633,-0.417 0.535,-0.529 0.396,-0.529ZM0.345,-0.129C0.275,-0.129 0.227,-0.183 0.227,-0.259C0.227,-0.334 0.275,-0.388 0.345,-0.388C0.418,-0.388 0.47,-0.334 0.47,-0.259C0.47,-0.183 0.418,-0.129 0.345,-0.129Z" style="fill:rgb(142,44,11);fill-rule:nonzero;"/>
                </g>
            </g>
        </g>
    </g>
</svg>
