<?xml version="1.0" encoding="UTF-8" standalone="no"?>
<!DOCTYPE svg PUBLIC "-//W3C//DTD SVG 1.1//EN" "http://www.w3.org/Graphics/SVG/1.1/DTD/svg11.dtd">
<svg width="100%" height="100%" viewBox="0 0 336 191" version="1.1" xmlns="http://www.w3.org/2000/svg" xmlns:xlink="http://www.w3.org/1999/xlink" xml:space="preserve" xmlns:serif="http://www.serif.com/" style="fill-rule:evenodd;clip-rule:evenodd;stroke-linejoin:round;stroke-miterlimit:2;">
    <g transform="matrix(1,0,0,1,-986.481,-5266.39)">
        <g transform="matrix(0.75,0,0,1.33333,-2438,5.68434e-14)">
            <g transform="matrix(4.30258,0,0,2.4202,-1023.99,3378.09)">
                <path d="M1327.84,277.396L1349.77,236.22L1356.46,236.22L1356.46,295.276L1349.77,295.276L1349.77,250.662L1327.84,291.837L1305.91,250.662L1305.91,295.276L1299.21,295.276L1299.21,236.22L1305.91,236.22L1327.84,277.396ZM1401.69,236.22L1378.64,261.837L1403.32,295.276L1387.93,295.276L1369.79,270.863L1362.39,278.771L1362.39,263.298L1386.3,236.22L1401.69,236.22Z" style="fill-rule:nonzero;"/>
            </g>
        </g>
    </g>
</svg>
