<?xml version="1.0" standalone="no"?>
<!DOCTYPE svg PUBLIC "-//W3C//DTD SVG 20010904//EN"
 "http://www.w3.org/TR/2001/REC-SVG-20010904/DTD/svg10.dtd">
<svg version="1.0" xmlns="http://www.w3.org/2000/svg"
 width="1344.000000pt" height="1344.000000pt" viewBox="0 0 1344.000000 1344.000000"
 preserveAspectRatio="xMidYMid meet">
<metadata>
Created by potrace 1.11, written by Peter Selinger 2001-2013
</metadata>
<g transform="translate(0.000000,1344.000000) scale(0.100000,-0.100000)"
fill="#000000" stroke="none">
<path d="M2 6728 l3 -3811 421 0 c231 0 425 2 430 5 5 4 9 1142 9 2868 0 1574
2 2863 5 2865 3 2 32 -49 65 -113 33 -64 62 -119 65 -122 3 -3 13 -21 24 -40
10 -19 43 -82 74 -140 31 -58 73 -139 95 -180 21 -41 64 -120 93 -175 30 -55
67 -125 82 -155 15 -30 29 -57 32 -60 3 -3 25 -43 49 -90 24 -47 56 -107 71
-135 15 -27 43 -79 61 -115 19 -36 37 -66 42 -68 4 -2 7 -12 7 -22 0 -10 4
-20 8 -22 4 -1 25 -37 46 -78 21 -41 51 -100 68 -130 16 -30 46 -86 66 -125
20 -38 42 -73 47 -77 6 -4 7 -8 3 -8 -4 0 8 -26 26 -58 18 -31 39 -72 47 -90
7 -17 17 -32 21 -32 5 0 8 -9 8 -20 0 -11 5 -20 10 -20 6 0 10 -4 10 -9 0 -4
18 -40 39 -80 22 -39 37 -71 34 -71 -3 0 1 -8 9 -17 8 -10 43 -72 78 -138 34
-66 67 -126 72 -132 6 -7 7 -13 3 -13 -5 0 -2 -8 6 -17 8 -10 28 -43 44 -73
15 -30 40 -77 55 -105 15 -27 56 -104 90 -170 34 -66 66 -121 71 -123 5 -2 9
-11 9 -21 0 -9 4 -21 9 -26 9 -10 57 -99 132 -245 24 -47 46 -87 49 -90 3 -3
25 -43 49 -90 42 -81 73 -141 161 -305 69 -129 115 -216 175 -330 32 -60 79
-148 104 -195 26 -47 53 -98 61 -115 8 -16 17 -32 20 -35 3 -3 16 -27 29 -55
14 -27 30 -57 37 -65 7 -8 13 -18 13 -23 0 -4 21 -45 46 -91 25 -46 45 -88 45
-94 0 -6 3 -12 8 -14 4 -1 22 -32 41 -68 34 -67 77 -146 151 -285 24 -44 49
-90 55 -101 10 -20 16 -12 65 85 30 58 57 108 60 111 3 3 20 34 39 70 18 36
46 88 61 115 15 28 48 89 74 137 25 49 67 127 93 175 25 49 62 119 82 158 20
38 42 76 49 83 6 7 12 19 12 26 0 7 9 25 21 40 11 14 18 26 14 26 -4 0 3 16
15 36 13 19 33 57 46 84 13 27 28 51 34 55 5 3 10 15 10 26 0 10 5 19 11 19 5
0 7 5 4 10 -3 6 -2 10 2 10 5 0 16 15 24 33 16 33 99 192 161 307 52 95 126
235 167 315 20 39 38 72 42 75 3 3 14 24 24 48 11 23 23 42 29 42 5 0 6 3 3 7
-4 3 -3 11 2 17 8 11 113 207 135 253 6 13 14 23 19 23 4 0 7 6 7 13 0 13 4
22 67 137 22 41 56 104 74 140 19 36 39 68 44 72 6 4 6 8 1 8 -5 0 -3 8 5 18
8 9 25 40 39 67 14 28 28 52 33 53 4 2 7 12 7 22 0 10 3 20 8 22 4 2 23 35 43
73 20 39 52 99 71 135 20 36 56 103 80 150 25 47 61 115 80 150 35 64 106 198
157 295 14 28 28 52 31 55 3 3 22 39 43 80 38 73 110 211 179 340 19 36 61
115 93 175 32 61 69 130 83 155 14 25 41 77 61 115 20 39 39 72 44 73 4 2 7
12 7 22 0 10 3 20 8 22 4 2 21 30 39 63 87 165 120 229 170 325 31 58 58 108
62 112 4 4 6 -1283 6 -2860 0 -1577 2 -2871 6 -2877 6 -8 664 -12 837 -6 l22
1 0 3810 0 3810 -434 0 c-378 0 -435 -2 -440 -15 -3 -8 -4 -17 -3 -19 1 -2 -5
-12 -14 -22 -9 -11 -25 -37 -36 -59 -99 -194 -119 -231 -124 -235 -3 -3 -14
-23 -25 -45 -10 -22 -20 -42 -23 -45 -4 -3 -26 -45 -51 -95 -25 -49 -47 -92
-50 -95 -3 -3 -16 -27 -30 -55 -13 -27 -32 -62 -42 -77 -10 -14 -18 -33 -18
-42 0 -9 -4 -16 -10 -16 -5 0 -10 -6 -10 -13 0 -7 -11 -29 -25 -50 -14 -20
-23 -37 -19 -37 3 0 2 -6 -4 -12 -11 -14 -33 -55 -217 -403 -32 -60 -69 -130
-83 -155 -14 -25 -45 -83 -70 -130 -24 -47 -61 -116 -82 -155 -20 -38 -61
-115 -90 -170 -30 -55 -69 -127 -87 -160 -18 -33 -39 -73 -47 -90 -8 -16 -30
-58 -50 -92 -19 -35 -32 -63 -28 -63 4 0 2 -4 -3 -8 -6 -4 -22 -29 -36 -57
-64 -122 -160 -302 -224 -420 -18 -33 -56 -105 -85 -160 -29 -55 -57 -106 -62
-112 -6 -7 -7 -13 -3 -13 5 0 1 -8 -7 -17 -8 -10 -44 -74 -79 -143 -35 -68
-70 -131 -76 -138 -7 -7 -13 -17 -13 -22 0 -5 -41 -84 -91 -177 -51 -92 -92
-174 -92 -180 0 -7 -3 -13 -7 -13 -7 0 -40 -66 -39 -76 0 -4 -3 -10 -8 -13
-10 -7 -10 -9 -97 -175 -37 -70 -86 -163 -109 -205 -23 -42 -49 -90 -57 -106
-8 -17 -21 -38 -29 -47 -8 -10 -11 -18 -6 -18 4 0 2 -6 -4 -14 -7 -8 -24 -38
-40 -68 -55 -106 -155 -295 -193 -361 -21 -38 -38 -75 -38 -82 0 -7 -4 -15 -8
-17 -5 -1 -33 -50 -63 -108 -30 -58 -58 -108 -62 -111 -5 -3 -7 -8 -5 -10 1
-2 -8 -23 -22 -47 l-26 -43 -14 28 c-8 15 -22 39 -31 53 -9 14 -20 36 -24 50
-4 14 -11 27 -15 30 -4 3 -35 59 -69 125 -35 66 -85 161 -112 210 -27 50 -54
102 -60 118 -6 15 -16 27 -22 27 -6 0 -8 3 -5 6 4 3 -8 31 -26 62 -17 31 -40
75 -51 97 -11 22 -22 42 -25 45 -3 3 -18 32 -35 64 -16 33 -61 119 -100 191
-38 72 -77 144 -85 160 -8 17 -21 38 -29 48 -8 9 -11 17 -7 17 4 0 -1 12 -12
28 -10 15 -41 70 -67 122 -27 52 -57 107 -67 123 -11 15 -16 27 -12 27 3 0 2
6 -4 13 -11 14 -37 59 -109 197 -28 52 -67 127 -88 165 -21 39 -60 113 -87
165 -55 103 -112 211 -163 305 -78 144 -207 387 -276 520 -28 55 -55 105 -59
110 -4 6 -30 53 -57 105 -80 152 -144 271 -173 325 -15 28 -51 95 -80 150 -29
55 -70 132 -90 170 -21 39 -59 111 -85 160 -26 50 -52 96 -57 103 -6 6 -7 12
-2 12 5 0 4 4 -2 8 -5 4 -41 66 -79 137 -37 72 -82 157 -100 190 -18 33 -53
98 -77 145 -25 47 -65 121 -88 165 -24 44 -65 123 -93 175 -28 52 -70 131 -94
175 -24 44 -55 104 -69 133 l-26 52 -434 0 -434 0 2 -3812z"/>
<path d="M11213 10508 c-16 -17 -37 -41 -48 -52 -11 -12 -33 -37 -49 -56 -15
-19 -45 -53 -65 -75 -20 -22 -74 -83 -120 -135 -46 -52 -109 -124 -141 -160
-32 -36 -67 -75 -77 -87 -11 -12 -42 -48 -71 -80 -28 -32 -59 -67 -69 -79 -38
-44 -124 -141 -163 -184 -23 -25 -56 -62 -73 -83 -18 -21 -51 -58 -74 -83 -24
-24 -43 -46 -43 -48 0 -4 -52 -64 -110 -126 -19 -21 -55 -61 -80 -90 -25 -29
-60 -69 -79 -89 -18 -20 -49 -56 -70 -80 -20 -24 -47 -56 -61 -70 -14 -14 -54
-60 -90 -101 -36 -41 -76 -87 -90 -101 -14 -15 -38 -42 -53 -60 -15 -19 -54
-63 -86 -99 -32 -36 -96 -108 -142 -160 -46 -52 -88 -100 -94 -106 -45 -50
-128 -145 -145 -165 -41 -47 -125 -142 -152 -170 -16 -16 -28 -31 -28 -33 0
-3 -10 -16 -22 -28 -24 -25 -76 -82 -173 -193 -33 -37 -64 -73 -70 -79 -5 -6
-41 -47 -80 -91 -38 -44 -76 -87 -85 -96 -8 -9 -36 -40 -62 -70 -80 -93 -88
-103 -126 -144 -21 -22 -66 -73 -102 -114 l-65 -74 0 -994 c0 -546 2 -993 5
-993 3 0 46 43 95 96 50 53 110 118 135 144 25 26 90 96 145 155 55 59 120
129 145 155 25 27 95 101 155 166 61 64 129 137 151 161 23 24 60 64 82 88
l41 46 18 -26 c10 -14 25 -34 34 -45 8 -10 23 -29 32 -42 9 -13 86 -115 169
-228 84 -113 213 -286 286 -385 73 -99 142 -191 152 -205 11 -14 69 -92 130
-175 61 -82 126 -170 145 -195 19 -25 118 -157 219 -295 102 -137 189 -254
194 -260 4 -5 43 -57 85 -115 43 -58 86 -116 97 -130 11 -14 48 -63 82 -110
34 -47 65 -87 70 -88 4 -2 8 -9 8 -14 0 -6 7 -18 15 -27 13 -13 238 -316 340
-456 11 -15 25 -32 30 -39 6 -6 28 -35 49 -65 21 -30 43 -59 48 -65 4 -6 39
-51 76 -101 l67 -90 988 0 c543 0 987 4 987 8 0 4 -5 13 -10 20 -32 38 -230
311 -230 317 0 5 -4 10 -8 12 -5 2 -28 30 -52 63 -24 33 -47 62 -52 63 -4 2
-8 8 -8 12 0 8 -99 145 -145 202 -8 9 -22 29 -32 45 -9 15 -20 30 -24 33 -3 3
-37 48 -75 100 -38 52 -111 151 -161 220 -51 69 -101 136 -111 149 -9 13 -72
98 -140 190 -68 91 -130 175 -138 186 -7 11 -45 63 -84 115 -39 52 -78 106
-88 119 -9 13 -22 29 -28 35 -6 6 -13 16 -15 21 -4 10 -194 268 -285 388 -24
31 -44 59 -44 61 0 2 -9 15 -20 28 -11 12 -56 73 -100 133 -44 61 -87 118 -95
128 -8 9 -15 21 -15 26 0 5 -3 11 -8 13 -4 2 -53 66 -109 143 -57 77 -109 147
-116 155 -7 8 -24 31 -37 50 -14 19 -28 40 -33 45 -8 10 -19 25 -172 234 -49
68 -101 137 -115 155 -14 18 -33 44 -43 57 -87 121 -113 154 -119 157 -5 2 -8
10 -8 17 0 7 -4 15 -8 17 -4 2 -39 46 -77 98 -112 152 -173 234 -182 245 -5 6
-19 26 -33 45 -13 19 -27 37 -30 40 -3 3 -21 28 -39 55 -19 28 -38 52 -41 55
-3 3 -16 19 -27 36 l-22 30 65 69 c35 37 64 70 64 72 0 2 10 14 23 27 27 28
158 172 187 206 34 40 152 170 190 211 20 20 49 53 65 72 44 51 174 195 218
240 20 21 37 41 37 44 0 2 18 22 40 44 22 22 40 42 40 44 0 2 15 19 33 37 17
19 52 56 76 83 38 44 128 145 199 224 13 14 54 59 90 100 37 41 84 92 105 114
20 22 37 42 37 45 0 2 6 10 14 16 7 6 58 61 111 121 54 61 105 117 114 126 9
9 43 47 76 84 33 37 69 77 80 90 74 82 174 192 194 214 12 14 53 60 90 101 36
41 80 89 96 106 17 18 50 56 74 84 24 28 60 68 80 89 20 21 68 74 106 117 39
43 83 92 99 108 15 17 49 55 75 85 25 29 60 68 76 86 17 18 64 70 105 116 41
46 83 91 93 101 9 10 17 20 17 23 0 3 -445 5 -990 5 l-990 0 -27 -32z"/>
</g>
</svg>
