<?xml version="1.0" encoding="UTF-8" standalone="no"?>
<!DOCTYPE svg PUBLIC "-//W3C//DTD SVG 1.1//EN" "http://www.w3.org/Graphics/SVG/1.1/DTD/svg11.dtd">
<svg width="100%" height="100%" viewBox="0 0 45 45" version="1.1" xmlns="http://www.w3.org/2000/svg" xmlns:xlink="http://www.w3.org/1999/xlink" xml:space="preserve" xmlns:serif="http://www.serif.com/" style="fill-rule:evenodd;clip-rule:evenodd;stroke-linejoin:round;stroke-miterlimit:2;">
    <g transform="matrix(1,0,0,1,-20156.9,-34.8865)">
        <g transform="matrix(0.555664,0,0,10.6754,17551.3,0)">
            <g transform="matrix(1.84864,0.0962234,-1.86205,0.0969213,-5446.42,-528.895)">
                <path d="M5509.94,22.361L5510.04,22.285L5510.15,22.217L5510.27,22.158L5510.38,22.106L5510.51,22.064L5510.63,22.031L5510.76,22.007L5510.88,21.993L5511.01,21.988L5545.09,21.988L5545.22,21.993L5545.34,22.007L5545.47,22.031L5545.59,22.064L5545.72,22.106L5545.83,22.158L5545.95,22.217L5546.06,22.285L5546.16,22.361L5546.26,22.444L5546.35,22.535L5546.43,22.632L5546.51,22.734L5546.58,22.843L5546.64,22.956L5546.69,23.073L5546.73,23.193L5546.76,23.317L5546.79,23.442L5546.8,23.569L5546.81,23.697L5546.8,23.825L5546.79,23.952L5546.76,24.077L5546.73,24.2L5546.69,24.321L5546.64,24.438L5546.58,24.551L5546.51,24.659L5546.43,24.762L5546.35,24.859L5546.26,24.949L5546.16,25.033L5546.06,25.109L5545.95,25.177L5545.83,25.236L5545.72,25.287L5545.59,25.329L5545.47,25.363L5545.34,25.386L5545.22,25.401L5545.09,25.405L5511.01,25.405L5510.88,25.401L5510.76,25.386L5510.63,25.363L5510.51,25.329L5510.38,25.287L5510.27,25.236L5510.15,25.177L5510.04,25.109L5509.94,25.033L5509.84,24.949L5509.75,24.859L5509.67,24.762L5509.59,24.659L5509.52,24.551L5509.46,24.438L5509.41,24.321L5509.37,24.2L5509.34,24.077L5509.31,23.952L5509.3,23.825L5509.29,23.697L5509.3,23.569L5509.31,23.442L5509.34,23.317L5509.37,23.193L5509.41,23.073L5509.46,22.956L5509.52,22.843L5509.59,22.734L5509.67,22.632L5509.75,22.535L5509.84,22.444L5509.94,22.361Z" style="fill:rgb(240,180,40);"/>
            </g>
        </g>
        <g transform="matrix(0.555664,0,0,10.6754,17551.3,0)">
            <g transform="matrix(1.84864,-0.0962234,1.86205,0.0969213,-5534.67,534.96)">
                <path d="M5546.43,22.631L5546.51,22.734L5546.58,22.842L5546.64,22.955L5546.69,23.072L5546.73,23.193L5546.76,23.316L5546.79,23.442L5546.8,23.569L5546.81,23.697L5546.8,23.824L5546.79,23.951L5546.76,24.077L5546.73,24.2L5546.69,24.321L5546.64,24.438L5546.58,24.551L5546.51,24.659L5546.43,24.762L5546.35,24.859L5546.26,24.949L5546.16,25.032L5546.06,25.108L5545.95,25.176L5545.83,25.236L5545.72,25.287L5545.59,25.329L5545.47,25.362L5545.34,25.386L5545.22,25.4L5545.09,25.405L5511.01,25.405L5510.88,25.4L5510.76,25.386L5510.63,25.362L5510.51,25.329L5510.38,25.287L5510.27,25.236L5510.15,25.176L5510.04,25.108L5509.94,25.032L5509.84,24.949L5509.75,24.859L5509.67,24.762L5509.59,24.659L5509.52,24.551L5509.46,24.438L5509.41,24.321L5509.37,24.2L5509.34,24.077L5509.31,23.951L5509.3,23.824L5509.29,23.697L5509.3,23.569L5509.31,23.442L5509.34,23.316L5509.37,23.193L5509.41,23.072L5509.46,22.955L5509.52,22.842L5509.59,22.734L5509.67,22.631L5509.75,22.535L5509.84,22.444L5509.94,22.361L5510.04,22.285L5510.15,22.217L5510.27,22.157L5510.38,22.106L5510.51,22.064L5510.63,22.031L5510.76,22.007L5510.88,21.993L5511.01,21.988L5545.09,21.988L5545.22,21.993L5545.34,22.007L5545.47,22.031L5545.59,22.064L5545.72,22.106L5545.83,22.157L5545.95,22.217L5546.06,22.285L5546.16,22.361L5546.26,22.444L5546.35,22.535L5546.43,22.631Z" style="fill:rgb(240,180,40);"/>
            </g>
        </g>
    </g>
</svg>
