<?xml version="1.0" encoding="UTF-8" standalone="no"?>
<!DOCTYPE svg PUBLIC "-//W3C//DTD SVG 1.1//EN" "http://www.w3.org/Graphics/SVG/1.1/DTD/svg11.dtd">
<svg width="100%" height="100%" viewBox="0 0 42 32" version="1.1" xmlns="http://www.w3.org/2000/svg" xmlns:xlink="http://www.w3.org/1999/xlink" xml:space="preserve" xmlns:serif="http://www.serif.com/" style="fill-rule:evenodd;clip-rule:evenodd;stroke-linejoin:round;stroke-miterlimit:2;">
    <g transform="matrix(1,0,0,1,-18700.4,-17.0912)">
        <g transform="matrix(0.56338,0,0,16.6087,15492.6,4.26326e-13)">
            <g transform="matrix(1.775,0,0,0.0602094,-4081.82,-0.180628)">
                <path d="M5545.25,21.703L5545.41,21.723L5545.57,21.755L5545.72,21.8L5545.87,21.857L5546.02,21.926L5546.16,22.006L5546.29,22.098L5546.41,22.2L5546.53,22.311L5546.64,22.432L5546.73,22.561L5546.82,22.697L5546.89,22.839L5546.96,22.988L5547.01,23.14L5547.05,23.297L5547.07,23.456L5547.09,23.616L5547.09,23.777L5547.07,23.938L5547.05,24.097L5547.01,24.253L5546.96,24.406L5546.89,24.554L5546.82,24.697L5546.73,24.833L5546.64,24.962L5546.53,25.082L5546.41,25.194L5546.29,25.296L5546.16,25.387L5546.02,25.468L5545.87,25.537L5545.72,25.594L5545.57,25.639L5545.41,25.671L5545.25,25.69L5545.09,25.697L5511.01,25.697L5510.85,25.69L5510.69,25.671L5510.53,25.639L5510.38,25.594L5510.23,25.537L5510.08,25.468L5509.94,25.387L5509.81,25.296L5509.69,25.194L5509.57,25.082L5509.46,24.962L5509.37,24.833L5509.28,24.697L5509.21,24.554L5509.14,24.406L5509.09,24.253L5509.05,24.097L5509.03,23.938L5509.02,23.777L5509.02,23.616L5509.03,23.456L5509.05,23.297L5509.09,23.14L5509.14,22.988L5509.21,22.839L5509.28,22.697L5509.37,22.561L5509.46,22.432L5509.57,22.311L5509.69,22.2L5509.81,22.098L5509.94,22.006L5510.08,21.926L5510.23,21.857L5510.38,21.8L5510.53,21.755L5510.69,21.723L5510.85,21.703L5511.01,21.697L5545.09,21.697L5545.25,21.703Z" style="fill:rgb(240,180,40);"/>
            </g>
            <g transform="matrix(1.775,0,0,0.0602094,-4081.82,0.539477)">
                <path d="M5545.25,21.703L5545.41,21.723L5545.57,21.755L5545.72,21.8L5545.87,21.857L5546.02,21.926L5546.16,22.006L5546.29,22.098L5546.41,22.2L5546.53,22.311L5546.64,22.432L5546.73,22.561L5546.82,22.697L5546.89,22.839L5546.96,22.988L5547.01,23.14L5547.05,23.297L5547.07,23.456L5547.09,23.616L5547.09,23.777L5547.07,23.938L5547.05,24.097L5547.01,24.253L5546.96,24.406L5546.89,24.554L5546.82,24.697L5546.73,24.833L5546.64,24.962L5546.53,25.082L5546.41,25.194L5546.29,25.296L5546.16,25.387L5546.02,25.468L5545.87,25.537L5545.72,25.594L5545.57,25.639L5545.41,25.671L5545.25,25.69L5545.09,25.697L5511.01,25.697L5510.85,25.69L5510.69,25.671L5510.53,25.639L5510.38,25.594L5510.23,25.537L5510.08,25.468L5509.94,25.387L5509.81,25.296L5509.69,25.194L5509.57,25.082L5509.46,24.962L5509.37,24.833L5509.28,24.697L5509.21,24.554L5509.14,24.406L5509.09,24.253L5509.05,24.097L5509.03,23.938L5509.02,23.777L5509.02,23.616L5509.03,23.456L5509.05,23.297L5509.09,23.14L5509.14,22.988L5509.21,22.839L5509.28,22.697L5509.37,22.561L5509.46,22.432L5509.57,22.311L5509.69,22.2L5509.81,22.098L5509.94,22.006L5510.08,21.926L5510.23,21.857L5510.38,21.8L5510.53,21.755L5510.69,21.723L5510.85,21.703L5511.01,21.697L5545.09,21.697L5545.25,21.703Z" style="fill:rgb(240,180,40);"/>
            </g>
            <g transform="matrix(1.775,0,0,0.0602094,-4081.82,1.25958)">
                <path d="M5545.25,21.703L5545.41,21.723L5545.57,21.755L5545.72,21.8L5545.87,21.857L5546.02,21.926L5546.16,22.006L5546.29,22.098L5546.41,22.2L5546.53,22.311L5546.64,22.432L5546.73,22.561L5546.82,22.697L5546.89,22.839L5546.96,22.988L5547.01,23.14L5547.05,23.297L5547.07,23.456L5547.09,23.616L5547.09,23.777L5547.07,23.938L5547.05,24.097L5547.01,24.253L5546.96,24.406L5546.89,24.554L5546.82,24.697L5546.73,24.833L5546.64,24.962L5546.53,25.082L5546.41,25.194L5546.29,25.296L5546.16,25.387L5546.02,25.468L5545.87,25.537L5545.72,25.594L5545.57,25.639L5545.41,25.671L5545.25,25.69L5545.09,25.697L5511.01,25.697L5510.85,25.69L5510.69,25.671L5510.53,25.639L5510.38,25.594L5510.23,25.537L5510.08,25.468L5509.94,25.387L5509.81,25.296L5509.69,25.194L5509.57,25.082L5509.46,24.962L5509.37,24.833L5509.28,24.697L5509.21,24.554L5509.14,24.406L5509.09,24.253L5509.05,24.097L5509.03,23.938L5509.02,23.777L5509.02,23.616L5509.03,23.456L5509.05,23.297L5509.09,23.14L5509.14,22.988L5509.21,22.839L5509.28,22.697L5509.37,22.561L5509.46,22.432L5509.57,22.311L5509.69,22.2L5509.81,22.098L5509.94,22.006L5510.08,21.926L5510.23,21.857L5510.38,21.8L5510.53,21.755L5510.69,21.723L5510.85,21.703L5511.01,21.697L5545.09,21.697L5545.25,21.703Z" style="fill:rgb(240,180,40);"/>
            </g>
        </g>
    </g>
</svg>
