<?xml version="1.0" encoding="UTF-8" standalone="no"?>
<!DOCTYPE svg PUBLIC "-//W3C//DTD SVG 1.1//EN" "http://www.w3.org/Graphics/SVG/1.1/DTD/svg11.dtd">
<svg width="100%" height="100%" viewBox="0 0 457 461" version="1.1" xmlns="http://www.w3.org/2000/svg" xmlns:xlink="http://www.w3.org/1999/xlink" xml:space="preserve" xmlns:serif="http://www.serif.com/" style="fill-rule:evenodd;clip-rule:evenodd;stroke-linejoin:round;stroke-miterlimit:2;">
    <g transform="matrix(1,0,0,1,-18235.6,-304.82)">
        <g transform="matrix(0.739583,0,0,5.35479,14773.1,0)">
            <g transform="matrix(0.456475,-1.15093e-33,3.33322e-32,0.0630466,2670.14,77.8761)">
                <path d="M5138.96,-329.963C5101.3,-333.097 5063.44,-333.097 5025.78,-329.963L5007.09,-225.053C4970.93,-220.32 4935.3,-212.186 4900.66,-200.761L4838.31,-287.174C4803.01,-273.657 4768.91,-257.231 4736.33,-238.067L4765.02,-135.438C4734.49,-115.483 4705.91,-92.694 4679.66,-67.373L4585.99,-118.174C4560.06,-90.683 4536.46,-61.085 4515.43,-29.685L4585.8,50.335C4566.95,81.558 4551.09,114.49 4538.43,148.692L4431.99,143.565C4420.56,179.585 4412.13,216.493 4406.81,253.908L4504.93,295.47C4501.5,331.779 4501.5,368.33 4504.93,404.638L4406.81,446.201C4412.13,483.616 4420.56,520.524 4431.99,556.544L4538.43,551.417C4551.09,585.619 4566.95,618.551 4585.8,649.774L4515.43,729.794C4536.46,761.193 4560.06,790.791 4585.99,818.283L4679.66,767.482C4705.91,792.803 4734.49,815.592 4765.02,835.547L4736.33,938.175C4768.91,957.34 4803.01,973.766 4838.31,987.283L4900.66,900.869C4935.3,912.295 4970.93,920.428 5007.09,925.162L5025.78,1030.07C5063.44,1033.21 5101.3,1033.21 5138.96,1030.07L5157.65,925.162C5193.81,920.428 5229.44,912.295 5264.08,900.869L5326.43,987.283C5361.72,973.766 5395.83,957.34 5428.4,938.175L5399.72,835.547C5430.25,815.592 5458.82,792.803 5485.07,767.482L5578.74,818.283C5604.68,790.791 5628.28,761.193 5649.31,729.794L5578.94,649.774C5597.78,618.551 5613.64,585.619 5626.31,551.417L5732.74,556.544C5744.18,520.524 5752.6,483.616 5757.93,446.201L5659.81,404.638C5663.24,368.33 5663.24,331.779 5659.81,295.47L5757.93,253.908C5752.6,216.493 5744.18,179.585 5732.74,143.565L5626.31,148.692C5613.64,114.49 5597.78,81.558 5578.94,50.335L5649.31,-29.685C5628.28,-61.085 5604.68,-90.683 5578.74,-118.174L5485.07,-67.373C5458.82,-92.694 5430.25,-115.483 5399.72,-135.438L5428.4,-238.067C5395.83,-257.231 5361.72,-273.657 5326.43,-287.174L5264.08,-200.761C5229.44,-212.186 5193.81,-220.32 5157.65,-225.053L5138.96,-329.963ZM5082.37,-29.201C5291.69,-29.201 5461.62,140.738 5461.62,350.054C5461.62,559.371 5291.69,729.31 5082.37,729.31C4873.05,729.31 4703.11,559.371 4703.11,350.054C4703.11,140.738 4873.05,-29.201 5082.37,-29.201Z" style="fill:rgb(218,226,236);"/>
            </g>
        </g>
    </g>
</svg>
